<svg width="32" height="32" viewBox="0 0 32 32" fill="none" xmlns="http://www.w3.org/2000/svg">
  <rect width="32" height="32" rx="8" fill="url(#gradient)"/>
  <path d="M16 8C11.58 8 8 9.79 8 12V20C8 22.21 11.58 24 16 24C20.42 24 24 22.21 24 20V12C24 9.79 20.42 8 16 8Z" stroke="white" stroke-width="1.5" stroke-linecap="round" stroke-linejoin="round"/>
  <path d="M8 12C8 14.21 11.58 16 16 16C20.42 16 24 14.21 24 12" stroke="white" stroke-width="1.5" stroke-linecap="round" stroke-linejoin="round"/>
  <path d="M8 16C8 18.21 11.58 20 16 20C20.42 20 24 18.21 24 16" stroke="white" stroke-width="1.5" stroke-linecap="round" stroke-linejoin="round"/>
  <defs>
    <linearGradient id="gradient" x1="0" y1="0" x2="32" y2="32" gradientUnits="userSpaceOnUse">
      <stop stop-color="#9333EA"/>
      <stop offset="1" stop-color="#C049FF"/>
    </linearGradient>
  </defs>
</svg>
