<svg width="32" height="32" viewBox="0 0 100 100" fill="none" xmlns="http://www.w3.org/2000/svg">
  <circle cx="50" cy="50" r="8" fill="currentColor"/>
  <g stroke="currentColor" stroke-width="2.5" stroke-linecap="round">
    <line x1="50" y1="50" x2="50" y2="5"/>
    <line x1="50" y1="50" x2="57.8" y2="5.8"/>
    <line x1="50" y1="50" x2="65.3" y2="7.6"/>
    <line x1="50" y1="50" x2="72.4" y2="10.9"/>
    <line x1="50" y1="50" x2="78.8" y2="15.5"/>
    <line x1="50" y1="50" x2="84.5" y2="21.2"/>
    <line x1="50" y1="50" x2="89.1" y2="27.6"/>
    <line x1="50" y1="50" x2="92.4" y2="34.7"/>
    <line x1="50" y1="50" x2="94.2" y2="42.2"/>
    <line x1="50" y1="50" x2="95" y2="50"/>
    <line x1="50" y1="50" x2="94.2" y2="57.8"/>
    <line x1="50" y1="50" x2="92.4" y2="65.3"/>
    <line x1="50" y1="50" x2="89.1" y2="72.4"/>
    <line x1="50" y1="50" x2="84.5" y2="78.8"/>
    <line x1="50" y1="50" x2="78.8" y2="84.5"/>
    <line x1="50" y1="50" x2="72.4" y2="89.1"/>
    <line x1="50" y1="50" x2="65.3" y2="92.4"/>
    <line x1="50" y1="50" x2="57.8" y2="94.2"/>
    <line x1="50" y1="50" x2="50" y2="95"/>
    <line x1="50" y1="50" x2="42.2" y2="94.2"/>
    <line x1="50" y1="50" x2="34.7" y2="92.4"/>
    <line x1="50" y1="50" x2="27.6" y2="89.1"/>
    <line x1="50" y1="50" x2="21.2" y2="84.5"/>
    <line x1="50" y1="50" x2="15.5" y2="78.8"/>
    <line x1="50" y1="50" x2="10.9" y2="72.4"/>
    <line x1="50" y1="50" x2="7.6" y2="65.3"/>
    <line x1="50" y1="50" x2="5.8" y2="57.8"/>
    <line x1="50" y1="50" x2="5" y2="50"/>
    <line x1="50" y1="50" x2="5.8" y2="42.2"/>
    <line x1="50" y1="50" x2="7.6" y2="34.7"/>
    <line x1="50" y1="50" x2="10.9" y2="27.6"/>
    <line x1="50" y1="50" x2="15.5" y2="21.2"/>
    <line x1="50" y1="50" x2="21.2" y2="15.5"/>
    <line x1="50" y1="50" x2="27.6" y2="10.9"/>
    <line x1="50" y1="50" x2="34.7" y2="7.6"/>
    <line x1="50" y1="50" x2="42.2" y2="5.8"/>
  </g>
</svg>
